# xmcd
#
# Track frame offsets: 
#        150
#        27279
#        45621
#        62529
#        82020
#        100058
#        119201
#        140975
#        159150
#        191141
#        215448
#        235946
#        257057
#
# Disc length: 3717 seconds
#
# Revision: 0
# Processed by: cddbd v1.5.2PL0 Copyright (c) Steve Scherf et al.
# Submitted via: ExactAudioCopyFreeDBPlugin 1.0
#
DISCID=bc0e830d
DTITLE=陰陽座 - 迦陵頻伽
DYEAR=2016
DGENRE=Heavy Metal
TTITLE0=迦陵頻伽
TTITLE1=鸞
TTITLE2=熾天の隻翼
TTITLE3=刃
TTITLE4=廿弐匹目は毒蝮
TTITLE5=御前の瞳に羞いの砂
TTITLE6=轆轤首
TTITLE7=氷牙忍法帖
TTITLE8=人魚の檻
TTITLE9=素戔嗚
TTITLE10=絡新婦
TTITLE11=愛する者よ、死に候え
TTITLE12=風人を憐れむ歌
EXTD=
EXTT0=
EXTT1=
EXTT2=
EXTT3=
EXTT4=
EXTT5=
EXTT6=
EXTT7=
EXTT8=
EXTT9=
EXTT10=
EXTT11=
EXTT12=
PLAYORDER=
